<svg id="Layer_3" enable-background="new 0 0 96 96" height="512" viewBox="0 0 96 96" width="512" xmlns="http://www.w3.org/2000/svg"><path d="m16 65h71v-12h-71c-3.314 0-6 2.686-6 6 0 3.314 2.686 6 6 6z" fill="#f0f0f0"/><path d="m15 89h75v-16h-75c-4.418 0-8 3.582-8 8 0 4.418 3.582 8 8 8z" fill="#f0f0f0"/><path d="m88 53h-72c-3.314 0-6 2.686-6 6 0 3.314 2.686 6 6 6h72c1.105 0 2 .895 2 2 0 1.105-.895 2-2 2h-72c-5.523 0-10-4.477-10-10 0-5.523 4.477-10 10-10h72c1.105 0 2 .895 2 2 0 1.105-.895 2-2 2z" fill="#63b2b9"/><path d="m91 69h-76c-6.627 0-12 5.373-12 12 0 6.627 5.373 12 12 12h76c1.105 0 2-.895 2-2 0-1.105-.895-2-2-2h-76c-4.418 0-8-3.582-8-8 0-4.418 3.582-8 8-8h76c1.105 0 2-.895 2-2 0-1.105-.895-2-2-2z" fill="#f9aa3d"/><path d="m20 77v8l5-2 5 2v-8z" fill="#ec2f53"/><path d="m16 17h64v32h-64z" fill="#ec2f53"/><path d="m89 25-4 16 4 4 4-4z" fill="#f9aa3d"/><path d="m8 15 40 12 41-12-41-12z" fill="#ec2f53"/><path d="m48 12c-2.89 0-6 .938-6 3s3.11 3 6 3 6-.938 6-3-3.11-3-6-3zm0 4c-2.347 0-3.717-.673-3.975-1 .258-.327 1.628-1 3.975-1s3.717.673 3.975 1c-.258.327-1.628 1-3.975 1z"/><path d="m91 88v-11c0-.553-.448-1-1-1s-1 .447-1 1v11h-74c-3.86 0-7-3.141-7-7s3.14-7 7-7h76c1.654 0 3-1.346 3-3s-1.346-3-3-3h-.184c.112-.314.184-.647.184-1 0-1.654-1.346-3-3-3v-10c1.654 0 3-1.346 3-3s-1.346-3-3-3h-7v-29.616l7-2.049v8.542l-3.97 15.881c-.085.341.015.701.263.949l4 4c.195.196.451.293.707.293s.512-.098.707-.293l4-4c.249-.248.348-.608.263-.949l-3.97-15.881v-9.877c0-.444-.293-.835-.719-.96l-41-12c-.184-.053-.378-.053-.562 0l-41 12c-.426.125-.719.516-.719.96s.293.835.719.96l41 12c.092.027.186.04.281.04s.189-.014.281-.04l30.719-8.991v23.031h-11c-.552 0-1 .447-1 1s.448 1 1 1h11v4h-62v-26c0-.553-.448-1-1-1s-1 .447-1 1v26.051c-5.598.507-10 5.221-10 10.949 0 4.195 2.362 7.846 5.824 9.701-5.123 1.745-8.824 6.593-8.824 12.299 0 7.168 5.832 13 13 13h76c1.654 0 3-1.346 3-3s-1.346-3-3-3zm-2-44.414-2.893-2.893 2.893-11.57 2.893 11.57zm-41-17.628-37.44-10.958 37.44-10.958 37.44 10.958zm38 38.042h-70c-2.757 0-5-2.243-5-5s2.243-5 5-5h70zm-79-5c0-4.963 4.038-9 9-9h72c.551 0 1 .448 1 1s-.449 1-1 1h-72c-3.86 0-7 3.141-7 7s3.14 7 7 7h72c.551 0 1 .448 1 1s-.449 1-1 1h-72c-4.962 0-9-4.037-9-9zm84 33h-76c-6.065 0-11-4.934-11-11s4.935-11 11-11h76c.551 0 1 .448 1 1s-.449 1-1 1h-76c-4.962 0-9 4.037-9 9s4.038 9 9 9h76c.551 0 1 .448 1 1s-.449 1-1 1z"/><circle cx="64" cy="43" r="1"/><circle cx="60" cy="43" r="1"/><circle cx="56" cy="43" r="1"/><circle cx="29" cy="61" r="1"/><path d="m19.44 85.828c.275.186.623.224.932.101l4.628-1.852 4.628 1.852c.121.048.247.071.372.071.197 0 .393-.059.561-.172.275-.186.439-.496.439-.828v-7h2c.552 0 1-.447 1-1s-.448-1-1-1h-16c-.552 0-1 .447-1 1s.448 1 1 1h2v7c0 .332.165.642.44.828zm9.56-2.304-3.628-1.452c-.239-.096-.504-.096-.743 0l-3.629 1.452v-5.524h8z"/><path d="m56 79c0-.553-.448-1-1-1h-17c-.552 0-1 .447-1 1s.448 1 1 1h17c.552 0 1-.447 1-1z"/><path d="m76 79c0-.553-.448-1-1-1h-16c-.552 0-1 .447-1 1s.448 1 1 1h16c.552 0 1-.447 1-1z"/><path d="m46 85h22c.552 0 1-.447 1-1s-.448-1-1-1h-22c-.552 0-1 .447-1 1s.448 1 1 1z"/><path d="m74 85h11c.552 0 1-.447 1-1s-.448-1-1-1h-11c-.552 0-1 .447-1 1s.448 1 1 1z"/><path d="m24 58h19c.552 0 1-.447 1-1s-.448-1-1-1h-19c-.552 0-1 .447-1 1s.448 1 1 1z"/><path d="m47 58h16c.552 0 1-.447 1-1s-.448-1-1-1h-16c-.552 0-1 .447-1 1s.448 1 1 1z"/><path d="m53 60h-20c-.552 0-1 .447-1 1s.448 1 1 1h20c.552 0 1-.447 1-1s-.448-1-1-1z"/><path d="m73 60h-11c-.552 0-1 .447-1 1s.448 1 1 1h11c.552 0 1-.447 1-1s-.448-1-1-1z"/><path d="m71 58h11c.552 0 1-.447 1-1s-.448-1-1-1h-11c-.552 0-1 .447-1 1s.448 1 1 1z"/><circle cx="20" cy="45" r="1"/><circle cx="20" cy="41" r="1"/><circle cx="20" cy="37" r="1"/><circle cx="24" cy="45" r="1"/><circle cx="24" cy="41" r="1"/><circle cx="28" cy="45" r="1"/><path d="m85 78h-6c-.552 0-1 .447-1 1s.448 1 1 1h6c.552 0 1-.447 1-1s-.448-1-1-1z"/></svg>