<svg xmlns="http://www.w3.org/2000/svg" height="512" viewBox="0 0 96 96" width="512"><path d="M16 65h71V53H16a6 6 0 1 0 0 12zm-1 24h75V73H15a8 8 0 1 0 0 16z" fill="#f0f0f0"/><path d="M88 53H16a6 6 0 1 0 0 12h72a2 2 0 1 1 0 4H16a10 10 0 1 1 0-20h72a2 2 0 1 1 0 4z" fill="#63b2b9"/><path d="M91 69H15C8.373 69 3 74.373 3 81s5.373 12 12 12h76a2 2 0 1 0 0-4H15a8 8 0 1 1 0-16h76a2 2 0 1 0 0-4z" fill="#f9aa3d"/><path d="M20 77v8l5-2 5 2v-8zm-4-60h64v32H16z" fill="#ec2f53"/><path d="m89 25-4 16 4 4 4-4z" fill="#f9aa3d"/><path d="M8 15l40 12 41-12L48 3z" fill="#ec2f53"/><path d="M48 12c-2.9 0-6 .938-6 3s3.1 3 6 3 6-.938 6-3-3.1-3-6-3zm0 4c-2.347 0-3.717-.673-3.975-1 .258-.327 1.628-1 3.975-1s3.717.673 3.975 1c-.258.327-1.628 1-3.975 1zm43 72V77a1 1 0 1 0-2 0v11H15a7.01 7.01 0 0 1-7-7 7.01 7.01 0 0 1 7-7h76c1.654 0 3-1.346 3-3s-1.346-3-3-3h-.184c.112-.314.184-.647.184-1 0-1.654-1.346-3-3-3V54c1.654 0 3-1.346 3-3s-1.346-3-3-3h-7V18.384l7-2.05v8.542l-3.97 15.88a1 1 0 0 0 .263.949l4 4a.99.99 0 0 0 .707.293c.257 0 .512-.098.707-.293l4-4c.25-.248.348-.608.263-.95L90 24.877V15a1 1 0 0 0-.719-.96l-41-12c-.184-.053-.378-.053-.562 0l-41 12a1 1 0 0 0 0 1.92l41 12a.99.99 0 0 0 .28.04 1.03 1.03 0 0 0 .281-.04l30.72-9V42H68a1 1 0 1 0 0 2h11v4H17V22a1 1 0 1 0-2 0v26.05C9.402 48.558 5 53.272 5 59c0 4.195 2.362 7.846 5.824 9.7C5.7 70.446 2 75.294 2 81a13.02 13.02 0 0 0 13 13h76c1.654 0 3-1.346 3-3s-1.346-3-3-3zm-2-44.414l-2.893-2.893L89 29.123l2.893 11.57zM48 25.958L10.56 15 48 4.042 85.44 15zM86 64H16c-2.757 0-5-2.243-5-5s2.243-5 5-5h70zM7 59c0-4.963 4.038-9 9-9h72a1 1 0 1 1 0 2H16a7.01 7.01 0 0 0-7 7 7.01 7.01 0 0 0 7 7h72a1 1 0 1 1 0 2H16c-4.962 0-9-4.037-9-9zm84 33H15C8.935 92 4 87.066 4 81s4.935-11 11-11h76a1 1 0 1 1 0 2H15c-4.962 0-9 4.037-9 9s4.038 9 9 9h76a1 1 0 1 1 0 2z"/><circle cx="64" cy="43" r="1"/><circle cx="60" cy="43" r="1"/><circle cx="56" cy="43" r="1"/><circle cx="29" cy="61" r="1"/><path d="M19.44 85.828a1 1 0 0 0 .932.101L25 84.077l4.628 1.852a1 1 0 0 0 .372.07 1.01 1.01 0 0 0 .56-.172A1 1 0 0 0 31 85v-7h2a1 1 0 1 0 0-2H17a1 1 0 1 0 0 2h2v7a1 1 0 0 0 .44.828zM29 83.524l-3.628-1.452c-.24-.096-.504-.096-.743 0L21 83.524V78h8zM56 79a1 1 0 0 0-1-1H38a1 1 0 1 0 0 2h17a1 1 0 0 0 1-1zm20 0a1 1 0 0 0-1-1H59a1 1 0 1 0 0 2h16a1 1 0 0 0 1-1zm-30 6h22a1 1 0 1 0 0-2H46a1 1 0 1 0 0 2zm28 0h11a1 1 0 1 0 0-2H74a1 1 0 1 0 0 2zM24 58h19a1 1 0 1 0 0-2H24a1 1 0 1 0 0 2zm23 0h16a1 1 0 1 0 0-2H47a1 1 0 1 0 0 2zm6 2H33a1 1 0 1 0 0 2h20a1 1 0 1 0 0-2zm20 0H62a1 1 0 1 0 0 2h11a1 1 0 1 0 0-2zm-2-2h11a1 1 0 1 0 0-2H71a1 1 0 1 0 0 2z"/><circle cx="20" cy="45" r="1"/><circle cx="20" cy="41" r="1"/><circle cx="20" cy="37" r="1"/><circle cx="24" cy="45" r="1"/><circle cx="24" cy="41" r="1"/><circle cx="28" cy="45" r="1"/><path d="M85 78h-6a1 1 0 1 0 0 2h6a1 1 0 1 0 0-2z"/></svg>