<svg xmlns="http://www.w3.org/2000/svg" height="512" viewBox="0 0 60 60" width="512" fill-rule="nonzero"><path d="M2 17h56v39a3 3 0 0 1-3 3H5a3 3 0 0 1-3-3z" fill="#f5f5f5"/><path d="M55 17v39a3 3 0 0 1-3 3h3a3 3 0 0 0 3-3V17z" fill="#cfd8dc"/><path d="M10 6h45a4 4 0 0 1 4 4v6a1 1 0 0 1-1 1H2a1 1 0 0 1-1-1v-6a4 4 0 0 1 4-4z" fill="#f44335"/><path d="M55 6h-3a4 4 0 0 1 4 4v6a1 1 0 0 1-1 1h3a1 1 0 0 0 1-1v-6a4 4 0 0 0-4-4z" fill="#c81e1e"/><g fill="#7f8e94"><rect height="10" rx="2" width="5" x="5" y="1"/><rect height="10" rx="2" width="5" x="20" y="1"/><rect height="10" rx="2" width="5" x="35" y="1"/><rect height="10" rx="2" width="5" x="50" y="1"/></g><path d="M53 1h-1c-.352.002-.697.098-1 .277.617.355.998 1.01 1 1.723v6c-.002.712-.383 1.368-1 1.723.303.18.648.275 1 .277h1a2 2 0 0 0 2-2V3a2 2 0 0 0-2-2z" fill="#545c60"/><path d="M13 47v8H9a3 3 0 0 1-3-3v-2a3 3 0 0 1 3-3z" fill="#e91e63"/><path d="M13 47h32v8H13z" fill="#02a9f4"/><path d="M13 47h5v8h-5z" fill="#7f8e94"/><path d="M45 47l9 4-9 4z" fill="#ffeb3a"/><circle cx="18" cy="32" fill="#02a9f4" r="11"/><path d="M18 21a11.08 11.08 0 0 0-1.5.114 10.99 10.99 0 0 1 0 21.772c4.07.564 8.117-1.2 10.488-4.546s2.673-7.756.782-11.405S22.1 20.997 18 21z" fill="#0377bc"/><path d="M56 5.1V3a3 3 0 0 0-3-3h-1a3 3 0 0 0-3 3v2h-8V3a3 3 0 0 0-3-3h-1a3 3 0 0 0-3 3v2h-8V3a3 3 0 0 0-3-3h-1a3 3 0 0 0-3 3v2h-8V3a3 3 0 0 0-3-3H7a3 3 0 0 0-3 3v2.1A5.01 5.01 0 0 0 0 10v6c.002.7.383 1.368 1 1.722V56a4 4 0 0 0 4 4h50a4 4 0 0 0 4-4V17.722A1.99 1.99 0 0 0 60 16v-6a5.01 5.01 0 0 0-4-4.9zM51 3a1 1 0 0 1 1-1h1a1 1 0 0 1 1 1v6a1 1 0 0 1-1 1h-1a1 1 0 0 1-1-1zM36 3a1 1 0 0 1 1-1h1a1 1 0 0 1 1 1v6a1 1 0 0 1-1 1h-1a1 1 0 0 1-1-1zM21 3a1 1 0 0 1 1-1h1a1 1 0 0 1 1 1v6a1 1 0 0 1-1 1h-1a1 1 0 0 1-1-1zM6 3a1 1 0 0 1 1-1h1a1 1 0 0 1 1 1v6a1 1 0 0 1-1 1H7a1 1 0 0 1-1-1zm-4 7a3 3 0 0 1 2-2.816V9a3 3 0 0 0 3 3h1a3 3 0 0 0 3-3V7h8v2a3 3 0 0 0 3 3h1a3 3 0 0 0 3-3V7h8v2a3 3 0 0 0 3 3h1a3 3 0 0 0 3-3V7h8v2a3 3 0 0 0 3 3h1a3 3 0 0 0 3-3V7.184A3 3 0 0 1 58 10v6H2zm55 46a2 2 0 0 1-2 2H5a2 2 0 0 1-2-2V18h54zM9 56h36a.98.98 0 0 0 .4-.085h.008l9-4a1 1 0 0 0 0-1.828l-9-4h-.01c-.01 0-.022 0-.033-.01a1 1 0 0 0-.323-.065c-.014 0-.026-.008-.04-.008H9a4 4 0 0 0-4 4v2A4 4 0 0 0 9 56zm37-2.54v-4.92L51.538 51zM44 50H26a1 1 0 1 0 0 2h18v2H19v-2h3a1 1 0 1 0 0-2h-3v-2h25zm-27-2v6h-3v-6zM7 50a2 2 0 0 1 2-2h3v6H9a2 2 0 0 1-2-2zm11-6c6.627 0 12-5.373 12-12s-5.373-12-12-12S6 25.373 6 32c.023 6.618 5.382 11.977 12 12zm-5.834-20.1l.314.544a1 1 0 1 0 1.732-1l-.316-.548a9.91 9.91 0 0 1 3.1-.84v.64a1 1 0 1 0 2 0v-.64a9.91 9.91 0 0 1 3.1.84l-.316.548a1 1 0 1 0 1.732 1l.314-.544a10.07 10.07 0 0 1 2.271 2.271l-.544.314a1 1 0 1 0 1 1.732l.548-.316a9.91 9.91 0 0 1 .84 3.1h-.64a1 1 0 1 0 0 2h.64a9.91 9.91 0 0 1-.84 3.1l-.548-.316a1 1 0 1 0-1 1.732l.544.314a10.07 10.07 0 0 1-2.263 2.269l-.314-.544a1 1 0 1 0-1.732 1l.316.548a9.91 9.91 0 0 1-3.1.84v-.64a1 1 0 1 0-2 0v.64a9.91 9.91 0 0 1-3.1-.84l.316-.548a1 1 0 1 0-1.732-1l-.314.544A10.07 10.07 0 0 1 9.9 37.834l.544-.314a1 1 0 1 0-1-1.732l-.548.316a9.91 9.91 0 0 1-.84-3.1h.64a1 1 0 0 0 0-2H8.05a9.91 9.91 0 0 1 .84-3.1l.548.316a1 1 0 1 0 1-1.732l-.54-.322a10.07 10.07 0 0 1 2.266-2.266zm7.002 11.655a1 1 0 0 0 1.664-1.11L19 31.7V26a1 1 0 1 0-2 0v6a.99.99 0 0 0 .168.555zM33 23h19a1 1 0 1 0 0-2H33a1 1 0 1 0 0 2zm0 5h19a1 1 0 1 0 0-2H33a1 1 0 1 0 0 2zm0 5h19a1 1 0 1 0 0-2H33a1 1 0 1 0 0 2zm0 5h19a1 1 0 1 0 0-2H33a1 1 0 1 0 0 2zm0 5h10a1 1 0 1 0 0-2H33a1 1 0 1 0 0 2z" fill="#000"/></svg>