<svg xmlns="http://www.w3.org/2000/svg" height="512" width="512"><path d="M256 385v117l46.25-30L346 502V385z" fill="#ff7b79"/><path d="M10 10h492v360H10z" fill="#eefaff"/><circle cx="301" cy="325" fill="#ffda8f" r="75"/><path d="M130 140h66a10 10 0 1 0 0-20h-66a10 10 0 1 0 0 20zm252 60a10 10 0 1 0 0-20H130a10 10 0 1 0 0 20z"/><circle cx="256" cy="10" r="10"/><path d="M502 0H301a10 10 0 1 0 0 20h191v340H378.48c4.94-10.897 7.52-22.742 7.52-35 0-1.667-.064-3.335-.16-5H412a10 10 0 0 0 10-10c0-11.028 8.972-20 20-20a10 10 0 0 0 10-10V100a10 10 0 0 0-10-10c-11.028 0-20-8.972-20-20a10 10 0 0 0-10-10H100a10 10 0 0 0-10 10c0 11.028-8.972 20-20 20a10 10 0 0 0-10 10v180a10 10 0 0 0 10 10c11.028 0 20 8.972 20 20 0 5.523 4.477 10 10 10h116.16c-.097 1.675-.16 3.343-.16 5 0 12.26 2.578 24.105 7.518 35H20V20h191a10 10 0 1 0 0-20H10A10 10 0 0 0 0 10v360a10 10 0 0 0 10 10h226.207a84.89 84.89 0 0 0 9.793 9.794V502a10 10 0 0 0 5.226 8.787c3.22 1.75 7.14 1.597 10.216-.397l40.654-26.37 38.25 26.228A10 10 0 0 0 356 502.001V389.793a84.89 84.89 0 0 0 9.794-9.793H502a10 10 0 0 0 10-10V10a10 10 0 0 0-10-10zM236 325c0-36.42 29.755-65 65-65 35.273 0 65 28.605 65 65 0 35.738-28.916 65-65 65-35.96 0-65-29.134-65-65zM80 271.266V108.734A40.15 40.15 0 0 0 108.734 80h294.53a40.15 40.15 0 0 0 28.734 28.734v162.53a40.15 40.15 0 0 0-28.734 28.734h-21.02c-10.83-35.212-43.764-60-81.247-60s-70.414 24.787-81.246 60h-111.02A40.15 40.15 0 0 0 80 271.266zm227.905 192.487a10 10 0 0 0-11.097-.143L266 483.594V402.48c10.897 4.94 22.742 7.52 35 7.52s24.105-2.578 35-7.518v80.536z"/></svg>