<svg height="512" viewBox="0 0 512 512" width="512" xmlns="http://www.w3.org/2000/svg"><path d="m440 472h-240a32 32 0 0 1 -32-32v-368a32 32 0 0 1 32-32h192l80 72v328a32 32 0 0 1 -32 32z" fill="#fabe19"/><path d="m392 40v40a32 32 0 0 0 32 32h48z" fill="#f5871e"/><path d="m104 40a16 16 0 0 1 16 16v16a0 0 0 0 1 0 0h-32a0 0 0 0 1 0 0v-16a16 16 0 0 1 16-16z" fill="#55525b"/><path d="m104 40a16 16 0 0 1 16 16v16a0 0 0 0 1 0 0h-16a0 0 0 0 1 0 0v-32a0 0 0 0 1 0 0z" fill="#353744"/><path d="m72 104h64v200h-64z" fill="#d7e6f0"/><path d="m104 104h32v200h-32z" fill="#a5c3dc"/><path d="m72 304h64v128h-64z" fill="#55525b"/><path d="m104 304h32v128h-32z" fill="#353744"/><path d="m112.292 467.562 23.708-35.562h-64l23.708 35.562a9.966 9.966 0 0 0 8.292 4.438 9.966 9.966 0 0 0 8.292-4.438z" fill="#a5c3dc"/><path d="m112.292 467.562 2.375-3.562h-21.334l2.375 3.563a9.967 9.967 0 0 0 8.292 4.437 9.964 9.964 0 0 0 8.292-4.438z" fill="#353744"/><path d="m72 104v-16h-16a16 16 0 0 0 -16 16v95.548c0 8.615 6.621 16.028 15.226 16.434a16 16 0 1 0 .774-31.982v-80z" fill="#55525b"/><path d="m88 72h32a16 16 0 0 1 16 16v16a0 0 0 0 1 0 0h-64a0 0 0 0 1 0 0v-16a16 16 0 0 1 16-16z" fill="#55525b"/><path d="m104 72h16a16 16 0 0 1 16 16v16a0 0 0 0 1 0 0h-32a0 0 0 0 1 0 0v-32a0 0 0 0 1 0 0z" fill="#353744"/><path d="m261.333 88a28.032 28.032 0 0 0 -28 28v44a8 8 0 0 0 16 0v-24h24v24a8 8 0 0 0 16 0v-44a28.032 28.032 0 0 0 -28-28zm-12 32v-4a12 12 0 1 1 24 0v4z" fill="#6478b9"/><path d="m260 56a76 76 0 1 0 76 76 76.086 76.086 0 0 0 -76-76zm0 136a60 60 0 1 1 60-60 60.068 60.068 0 0 1 -60 60z" fill="#6478b9"/><g fill="#f5871e"><rect height="32" rx="16" width="152" x="200" y="240"/><rect height="32" rx="16" width="152" x="200" y="320"/><rect height="32" rx="16" width="152" x="200" y="400"/></g><path d="m400 278.667h-.109a12 12 0 0 1 -8.529-3.67l-15.71-16.291a12 12 0 0 1 17.277-16.659l7.226 7.494 23.36-23.359a12 12 0 1 1 16.97 16.971l-32 32a12 12 0 0 1 -8.485 3.514z" fill="#6478b9"/><path d="m400 361.333h-.109a12 12 0 0 1 -8.53-3.67l-15.709-16.291a12 12 0 0 1 17.278-16.66l7.226 7.5 23.359-23.359a12 12 0 0 1 16.97 16.971l-32 32a12 12 0 0 1 -8.485 3.509z" fill="#6478b9"/><path d="m400 436h-.109a12.005 12.005 0 0 1 -8.529-3.67l-15.71-16.291a12 12 0 0 1 17.277-16.66l7.226 7.5 23.36-23.359a12 12 0 0 1 16.97 16.97l-32 32a12 12 0 0 1 -8.485 3.51z" fill="#6478b9"/></svg>