<svg height="512pt" viewBox="0 0 512.02044 512" width="512pt" xmlns="http://www.w3.org/2000/svg"><path d="m388.414062 347.550781v146.804688c-.03125 9.738281-7.917968 17.625-17.65625 17.65625h-353.101562c-9.738281-.03125-17.6289062-7.917969-17.65625-17.65625v-441.378907c.0273438-9.738281 7.917969-17.625 17.65625-17.65625h353.101562c9.738282.03125 17.625 7.917969 17.65625 17.65625v194.648438" fill="#7f5b53"/><path d="m273.65625 70.632812h70.621094c4.875 0 8.824218 3.949219 8.824218 8.824219v388.414063c0 4.875-3.949218 8.828125-8.824218 8.828125h-300.140625c-4.875 0-8.828125-3.953125-8.828125-8.828125v-388.414063c0-4.875 3.953125-8.824219 8.828125-8.824219zm0 0" fill="#f9eab0"/><path d="m158.898438 35.320312c0-19.5 15.808593-35.3085932 35.308593-35.3085932s35.308594 15.8085932 35.308594 35.3085932" fill="#ecf0f1"/><path d="m114.757812 35.320312h158.898438v35.3125c0 9.75-7.90625 17.652344-17.65625 17.652344h-123.585938c-9.75 0-17.65625-7.902344-17.65625-17.652344zm0 0" fill="#bdc3c7"/><path d="m79.449219 167.734375c-2.34375 0-4.585938-.929687-6.242188-2.585937l-8.828125-8.828126c-3.34375-3.464843-3.296875-8.96875.109375-12.375 3.402344-3.40625 8.910157-3.453124 12.375-.105468l1.632813 1.632812 20.371094-27.171875c1.894531-2.523437 4.988281-3.847656 8.121093-3.46875 3.128907.378907 5.820313 2.394531 7.0625 5.296875 1.238281 2.898438.835938 6.242188-1.058593 8.765625l-26.480469 35.308594c-1.53125 2.054687-3.878907 3.34375-6.4375 3.53125zm0 0" fill="#24ae5f"/><path d="m79.449219 238.355469c-2.34375 0-4.585938-.929688-6.242188-2.585938l-8.828125-8.828125c-3.34375-3.464844-3.296875-8.96875.109375-12.375 3.402344-3.40625 8.910157-3.453125 12.375-.109375l1.632813 1.636719 20.371094-27.171875c1.894531-2.523437 4.988281-3.847656 8.121093-3.46875 3.128907.378906 5.820313 2.394531 7.0625 5.296875 1.238281 2.898438.835938 6.242188-1.058593 8.761719l-26.480469 35.3125c-1.53125 2.054687-3.878907 3.34375-6.4375 3.53125zm0 0" fill="#24ae5f"/><path d="m79.449219 308.976562c-2.34375 0-4.585938-.933593-6.242188-2.585937l-8.828125-8.828125c-3.34375-3.464844-3.296875-8.96875.109375-12.375 3.402344-3.40625 8.910157-3.453125 12.375-.109375l1.632813 1.632813 20.371094-27.167969c1.894531-2.523438 4.988281-3.847657 8.121093-3.46875 3.128907.375 5.820313 2.394531 7.0625 5.296875 1.238281 2.898437.835938 6.238281-1.058593 8.761718l-26.480469 35.3125c-1.53125 2.054688-3.878907 3.34375-6.4375 3.53125zm0 0" fill="#24ae5f"/><path d="m79.449219 379.597656c-2.34375 0-4.585938-.933594-6.242188-2.585937l-8.828125-8.828125c-3.34375-3.464844-3.296875-8.972656.109375-12.375 3.402344-3.40625 8.910157-3.453125 12.375-.109375l1.632813 1.632812 20.371094-27.171875c2.925781-3.898437 8.460937-4.6875 12.359374-1.765625 3.902344 2.925781 4.691407 8.460938 1.765626 12.359375l-26.480469 35.3125c-1.53125 2.054688-3.878907 3.34375-6.4375 3.53125zm0 0" fill="#24ae5f"/><path d="m79.449219 450.21875c-2.34375-.003906-4.585938-.933594-6.242188-2.589844l-8.828125-8.824218c-3.34375-3.464844-3.296875-8.972657.109375-12.375 3.402344-3.40625 8.910157-3.453126 12.375-.109376l1.632813 1.632813 20.371094-27.171875c2.925781-3.898438 8.460937-4.6875 12.359374-1.765625 3.902344 2.925781 4.691407 8.460937 1.765626 12.359375l-26.480469 35.3125c-1.53125 2.054688-3.878907 3.34375-6.4375 3.53125zm0 0" fill="#24ae5f"/><g fill="#802f34"><path d="m158.898438 450.21875h-17.65625c-4.875 0-8.828126-3.953125-8.828126-8.828125s3.953126-8.828125 8.828126-8.828125h17.65625c4.875 0 8.824218 3.953125 8.824218 8.828125s-3.949218 8.828125-8.824218 8.828125zm0 0"/><path d="m253.441406 450.21875h-59.234375c-4.875 0-8.828125-3.953125-8.828125-8.828125s3.953125-8.828125 8.828125-8.828125h59.234375c4.875 0 8.828125 3.953125 8.828125 8.828125s-3.953125 8.828125-8.828125 8.828125zm0 0"/><path d="m238.34375 370.769531h-97.101562c-4.875 0-8.828126-3.953125-8.828126-8.828125s3.953126-8.828125 8.828126-8.828125h97.101562c4.875 0 8.828125 3.953125 8.828125 8.828125s-3.953125 8.828125-8.828125 8.828125zm0 0"/><path d="m291.308594 300.148438h-150.066406c-4.875 0-8.828126-3.953126-8.828126-8.828126s3.953126-8.828124 8.828126-8.828124h150.066406c4.878906 0 8.828125 3.953124 8.828125 8.828124s-3.949219 8.828126-8.828125 8.828126zm0 0"/><path d="m317.792969 229.527344h-176.550781c-4.875 0-8.828126-3.953125-8.828126-8.828125s3.953126-8.828125 8.828126-8.828125h176.550781c4.875 0 8.828125 3.953125 8.828125 8.828125s-3.953125 8.828125-8.828125 8.828125zm0 0"/><path d="m317.792969 158.90625h-176.550781c-4.875 0-8.828126-3.953125-8.828126-8.828125s3.953126-8.828125 8.828126-8.828125h176.550781c4.875 0 8.828125 3.953125 8.828125 8.828125s-3.953125 8.828125-8.828125 8.828125zm0 0"/></g><path d="m501.671875 234.292969-24.980469 24.984375-49.964844-49.964844 24.980469-24.980469c8.925781-8.925781 21.933594-12.414062 34.125-9.144531 12.195313 3.265625 21.71875 12.789062 24.984375 24.980469 3.265625 12.191406-.21875 25.199219-9.144531 34.125zm0 0" fill="#fb7b76"/><path d="m476.691406 259.277344-24.894531 24.980468-.089844-.085937-49.964843-49.878906 24.984374-24.980469zm0 0" fill="#bdc3c7"/><path d="m451.796875 284.257812-137.359375 137.269532-18.714844-18.714844h-.085937l-12.449219-12.445312v-.089844l-18.714844-18.714844 137.269532-137.269531 18.804687 18.714843 12.445313 12.449219zm0 0" fill="#955ba5"/><path d="m314.4375 421.527344-58.171875 19.421875c-3.183594 1.039062-6.679687.203125-9.046875-2.164063-2.367188-2.367187-3.203125-5.867187-2.164062-9.046875l19.417968-58.175781zm0 0" fill="#bdc3c7"/><path d="m432.992188 265.457031-31.25 31.25c-1.644532 1.628907-3.863282 2.546875-6.179688 2.558594-2.339844-.007813-4.585938-.925781-6.265625-2.558594-3.441406-3.472656-3.441406-9.066406 0-12.535156l31.25-31.164063zm0 0" fill="#894b9d"/><path d="m376.851562 321.6875-81.128906 81.125h-.085937l-12.449219-12.445312v-.089844l81.128906-81.125c3.460938-3.460938 9.070313-3.460938 12.535156 0 3.460938 3.460937 3.460938 9.074218 0 12.535156zm0 0" fill="#894b9d"/></svg>