<svg xmlns="http://www.w3.org/2000/svg" height="512" width="512"><g fill-rule="evenodd"><path d="M66.72 153.29h252.706v140H66.72z" fill="#ffe6b4"/><path d="M66.72 153.29h252.706v140H66.72zm-49.28 344.8h391.55c-25.468-9.156-43.77-33.448-43.77-61.766V21.537c0-6.35-5.225-11.537-11.62-11.537H110.717v83.932c0 6.35-5.253 11.537-11.62 11.537l-84.597.057v384.938c0 2.92 1.113 5.583 2.94 7.624zM229.72 343.29h89.708v100.004H229.72z" fill="#fff"/><path d="M14.5 105.526l84.597-.057c6.367 0 11.62-5.187 11.62-11.537V10z" fill="#ebddd9"/><path d="M229.72 343.29h89.708v100.004H229.72z" fill="#99ebfa"/><path d="M365.222 436.323c0 28.318 18.3 52.6 43.77 61.766h44.74c25.44-9.156 43.77-33.448 43.77-61.766v-314.98c0-6.32-5.253-11.537-11.62-11.537h-54.533V66.2c0-6.32-5.253-11.537-11.62-11.537h-54.504v381.65z" fill="#ebddd9"/></g><path d="M485.88 99.806h-44.533V66.2c0-11.875-9.7-21.537-21.62-21.537h-44.504V21.537c0-11.877-9.7-21.537-21.62-21.537H110.717a10.1 10.1 0 0 0-7.045 2.903L7.455 98.43a10.05 10.05 0 0 0-2.955 7.097v384.938C4.5 502.34 14.2 512 26.12 512h405.227c42 0 76.153-33.95 76.153-75.677v-314.98c0-11.876-9.7-21.537-21.62-21.537zM100.717 34.02v59.913c0 .82-.757 1.537-1.627 1.537l-60.308.04zM26.12 492c-.863 0-1.62-.718-1.62-1.537V115.52l74.597-.05c11.92 0 21.62-9.662 21.62-21.537V20h232.885c.878 0 1.62.704 1.62 1.537v414.786c0 22 9.5 41.837 24.618 55.677zm461.38-55.677c0 30.7-25.2 55.677-56.153 55.677-30.947 0-56.125-24.977-56.125-55.677V64.673h44.504c.848 0 1.62.732 1.62 1.537v170.047a10 10 0 1 0 20 0v-116.45h44.533c.848 0 1.62.732 1.62 1.537zM319.426 143.3H66.72a10 10 0 0 0-10 10v140a10 10 0 0 0 10 10h252.706a10 10 0 0 0 10-10v-140a10 10 0 0 0-10-10zm-10 140H76.72v-120h232.706zm121.92 32.795a10 10 0 0 0-10 10V442a10 10 0 1 0 20 0V326.085c0-5.522-4.477-10-10-10zm-268.4-252.8h150.065a10 10 0 1 0 0-20H162.937a10 10 0 0 0-10 10c0 5.523 4.478 10 10 10zm150.065 30.003H208.105a10 10 0 1 0 0 20h104.897a10 10 0 1 0 0-20zM66.72 353.3h89.45a10 10 0 1 0 0-20H66.72a10 10 0 1 0 0 20zm0 50.003h25.924a10 10 0 1 0 0-20H66.72a10 10 0 1 0 0 20zm114.1-20h-47.08a10 10 0 1 0 0 20h47.08a10 10 0 0 0 10-10c0-5.523-4.478-10-10-10zM319.426 333.3h-89.708a10 10 0 0 0-10 10v100.004a10 10 0 0 0 10 10h89.708a10 10 0 0 0 10-10V343.3a10 10 0 0 0-10-10zm-10 100.004h-69.708V353.3h69.708zm-130.13.001H66.72a10 10 0 1 0 0 20h112.577a10 10 0 1 0 0-20zm252.05-162.138a10 10 0 0 0-10 10v.057c0 5.523 4.477 9.972 10 9.972s10-4.505 10-10.028a10 10 0 0 0-10-10zM162.88 113.287h.057c5.523 0 9.97-4.477 9.97-10s-4.505-10-10.028-10a10 10 0 1 0 0 20z"/></svg>