<svg id="Capa_1" enable-background="new 0 0 512 512" height="512" viewBox="0 0 512 512" width="512" xmlns="http://www.w3.org/2000/svg"><g><g><path clip-rule="evenodd" d="m66.72 153.289h252.706v140h-252.706z" fill="#ffe6b4" fill-rule="evenodd"/></g><g><path clip-rule="evenodd" d="m66.72 153.289h252.706v140h-252.706zm-49.279 344.799h391.551c-25.468-9.156-43.769-33.448-43.769-61.766v-107.402-274.247-33.136c0-6.349-5.225-11.537-11.62-11.537h-242.886v83.932c0 6.349-5.253 11.537-11.62 11.537l-84.597.057v167.326 217.612c0 2.919 1.113 5.583 2.941 7.624zm212.278-154.797h89.708v100.004h-89.708z" fill="#fff" fill-rule="evenodd"/></g><g><path clip-rule="evenodd" d="m14.5 105.526 84.597-.057c6.367 0 11.62-5.187 11.62-11.537v-83.932z" fill="#ebddd9" fill-rule="evenodd"/></g><g><path clip-rule="evenodd" d="m229.719 343.291h89.708v100.004h-89.708z" fill="#99ebfa" fill-rule="evenodd"/></g><g><path clip-rule="evenodd" d="m365.222 436.323c0 28.318 18.301 52.61 43.769 61.766h44.74c25.439-9.156 43.769-33.448 43.769-61.766v-314.98c0-6.321-5.253-11.537-11.62-11.537h-54.533v-43.596c0-6.321-5.253-11.537-11.62-11.537h-54.504v274.247 107.403z" fill="#ebddd9" fill-rule="evenodd"/></g><g><path d="m485.88 99.806h-44.533v-33.596c0-11.875-9.699-21.537-21.621-21.537h-44.504v-23.136c.001-11.876-9.698-21.537-21.62-21.537h-242.885c-2.615 0-5.188 1.063-7.045 2.903l-96.217 95.526c-1.881 1.859-2.955 4.454-2.955 7.097v384.938c0 11.875 9.699 21.536 21.62 21.536h390.323 14.904c41.991 0 76.153-33.949 76.153-75.677v-314.98c0-11.876-9.699-21.537-21.62-21.537zm-385.163-65.786v59.913c0 .819-.757 1.537-1.627 1.537l-60.308.04zm-74.597 457.98c-.863 0-1.62-.718-1.62-1.537v-374.944l74.597-.05c11.921 0 21.62-9.662 21.62-21.537v-73.932h232.885c.878 0 1.621.704 1.621 1.537v414.786c0 22 9.491 41.837 24.618 55.677zm461.38-55.677c0 30.701-25.19 55.677-56.153 55.677-30.947 0-56.125-24.977-56.125-55.677v-371.65h44.504c.848 0 1.621.732 1.621 1.537v170.047c0 5.523 4.477 10 10 10s10-4.477 10-10v-116.451h44.533c.848 0 1.62.732 1.62 1.537z"/><path d="m319.426 143.289h-252.706c-5.523 0-10 4.477-10 10v140c0 5.523 4.477 10 10 10h252.706c5.523 0 10-4.477 10-10v-140c0-5.523-4.477-10-10-10zm-10 140h-232.706v-120h232.706z"/><path d="m431.347 316.085c-5.523 0-10 4.477-10 10v115.906c0 5.523 4.477 10 10 10s10-4.477 10-10v-115.906c0-5.522-4.477-10-10-10z"/><path d="m162.937 63.284h150.065c5.523 0 10-4.477 10-10s-4.477-10-10-10h-150.065c-5.523 0-10 4.477-10 10s4.478 10 10 10z"/><path d="m313.002 93.287h-104.897c-5.523 0-10 4.477-10 10s4.477 10 10 10h104.897c5.523 0 10-4.477 10-10s-4.477-10-10-10z"/><path d="m66.72 353.291h89.451c5.523 0 10-4.477 10-10s-4.477-10-10-10h-89.451c-5.523 0-10 4.477-10 10s4.477 10 10 10z"/><path d="m66.72 403.293h25.924c5.523 0 10-4.477 10-10s-4.477-10-10-10h-25.924c-5.523 0-10 4.477-10 10s4.477 10 10 10z"/><path d="m180.811 383.293h-47.081c-5.523 0-10 4.477-10 10s4.477 10 10 10h47.081c5.523 0 10-4.477 10-10s-4.478-10-10-10z"/><path d="m319.426 333.291h-89.708c-5.523 0-10 4.477-10 10v100.004c0 5.523 4.477 10 10 10h89.708c5.523 0 10-4.477 10-10v-100.004c0-5.523-4.477-10-10-10zm-10 100.004h-69.708v-80.004h69.708z"/><path d="m179.297 433.295h-112.577c-5.523 0-10 4.477-10 10s4.477 10 10 10h112.577c5.523 0 10-4.477 10-10s-4.477-10-10-10z"/><path d="m431.347 271.157c-5.523 0-10 4.477-10 10v.057c0 5.523 4.477 9.972 10 9.972s10-4.505 10-10.028-4.477-10.001-10-10.001z"/><path d="m162.88 113.287h.057c5.523 0 9.971-4.477 9.971-10s-4.505-10-10.028-10-10 4.477-10 10 4.477 10 10 10z"/></g></g></svg>