<svg xmlns="http://www.w3.org/2000/svg" height="682.667" viewBox="0 0 512 512" width="682.667"><linearGradient id="A" gradientUnits="userSpaceOnUse" x1="0" x2="512" y1="256" y2="256"><stop offset="0" stop-color="#00f38d"/><stop offset="1" stop-color="#009eff"/></linearGradient><path d="M512 256c0 141.387-114.613 256-256 256S0 397.387 0 256 114.613 0 256 0s256 114.613 256 256zm0 0" fill="url(#A)"/><path d="M314.203 247.938c23.516-17.71 38.75-45.852 38.75-77.488 0-53.457-43.492-96.95-96.953-96.95s-96.95 43.492-96.95 96.95c0 31.637 15.23 59.777 38.746 77.488C134.836 271.57 89.902 332.383 89.902 403.5h30c0-75.047 61.055-136.098 136.102-136.098s136.098 61.05 136.098 136.098h30c-.004-71.117-44.934-131.93-107.898-155.562zM189.05 170.45c0-36.918 30.03-66.95 66.95-66.95s66.95 30.03 66.95 66.95-30.03 66.953-66.95 66.953-66.95-30.035-66.95-66.953zm0 0" fill="#fff"/></svg>